<svg id="Transparent_Logo_-_White" data-name="Transparent Logo - White" xmlns="http://www.w3.org/2000/svg" viewBox="0 0 514.18 583.4"><defs><style>.cls-1{fill:#fff;}</style></defs><g id="Logo_Final_copy" data-name="Logo Final copy"><g id="White_Logo_Fill_copy_2" data-name="White Logo Fill copy 2"><g id="White_Logo_copy_4" data-name="White Logo copy 4"><path class="cls-1" d="M739.51,534.32c-2.38-49-10.37-89.33-23.76-119.92-10.93-25-25.54-43.66-43.42-55.49-39.63-26.2-84.43-11.71-93-8.55a28.22,28.22,0,0,1-5.26,1.41c-20.22,3.2-36.84-.88-49.39-12.13-23.82-21.34-27-64-25.47-96.1a13.7,13.7,0,0,0-22.55-11.08c-27.71,23.87-40,72-49.32,115.3-9.84,45.59-7.38,75.87,7.53,92.55,14,15.73,40.7,21,83.88,16.73a7.5,7.5,0,0,1,1.5,14.92c-48.37,4.84-79.06-2-96.57-21.65-16.62-18.61-21.13-48.79-13.67-92-22.39,10.52-39.91,11.29-52.16,2.29-19.34-14.23-22.88-51.06-10.49-109.46a13.28,13.28,0,0,0-6.56-14.66,13.43,13.43,0,0,0-16.15,1.77c-22.21,20.2-44.61,54.14-58.45,88.57-15.6,38.8-18.78,73-8.93,96.34,11.23,26.58,39.33,38.69,83.52,36a28.67,28.67,0,0,1,27.88,40.27c-23.39,52.4-103.82,139-137.31,173.76a13.51,13.51,0,0,0-3.49,12.59C235.33,716.51,278.24,767,334.54,795a13.46,13.46,0,0,0,9.81.83c41.87-12.18,146.31-73.78,177.32-92.37a28.83,28.83,0,0,1,30.71.76L710.85,810.18a13.72,13.72,0,0,0,21-8.45C747.75,729.8,739.59,536.27,739.51,534.32Zm-41,154.18a20,20,0,0,1-20-20,20.33,20.33,0,0,1,.23-3l-90.85-41.64a7.51,7.51,0,0,1-4.31-7.82l5.31-39.42-52.6-25.14-37.61,21.1a7.52,7.52,0,0,1-5.61.71l-41.37-11.07-76.42,53a7.49,7.49,0,0,1-10.79-9.86L402,539.16a7.48,7.48,0,0,1,8.46-3.54L494,558l38.34-21.51a7.51,7.51,0,0,1,6.9-.23l61,29.17a7.5,7.5,0,0,1,4.2,7.77l-5.31,39.33,87.32,40a20,20,0,1,1,12,36Z" transform="translate(-227.49 -229.12)"/></g></g></g></svg>